# xmcd CD database file
#
# Track frame offsets:
#	187
#	22305
#	43565
#	64060
#	87325
#	108420
#	127950
#	150515
#	175482
#	192095
#
# Disc length: 2918 seconds
#
# Revision: 0
# Processed by: cddbd v1.5.1PL0 Copyright (c) Steve Scherf et al.
# Submitted via: CDex 1.51
#
DISCID=810b640a
DTITLE=真弓倫子 - Sincerely Yours
DYEAR=1989
DGENRE=Pop
TTITLE0=もっとBrand-New!
TTITLE1=RIBBON GIRL
TTITLE2=NO-NO! SEVENTEEN BLUES
TTITLE3=拝啓 晴れた日曜の午後
TTITLE4=びしょ濡れのHONESTY
TTITLE5=こしゃくなMy Halation
TTITLE6=TE・N・SHIのジョーク
TTITLE7=STAY・・・ずっとそばに
TTITLE8=リハーサルは鏡の前で
TTITLE9=Sincerely Yours(大事な恋人たち)
EXTD=YEAR: 1989
EXTT0=
EXTT1=
EXTT2=
EXTT3=
EXTT4=
EXTT5=
EXTT6=
EXTT7=
EXTT8=
EXTT9=
PLAYORDER=
